<?xml version="1.0" encoding="UTF-8"?>
<svg id="Layer_2" data-name="Layer 2" xmlns="http://www.w3.org/2000/svg" viewBox="0 0 267.03 118.02">
  <defs>
    <style>
      .cls-1 {
        fill: #49bad5;
      }

      .cls-1, .cls-2 {
        stroke-width: 0px;
      }

      .cls-2 {
        fill: #2f3440;
      }
    </style>
  </defs>
  <g id="Layer_1-2" data-name="Layer 1">
    <g>
      <g>
        <polygon class="cls-2" points="11.59 22.1 11.59 53.42 0 53.42 0 .07 11.55 .1 11.59 22.1"/>
        <path class="cls-2" d="m116.45,43.52v9.91h-41.31V.07h40.32v9.91h-28.05v11.59h24.77v9.6h-24.77v12.35h29.04Z"/>
        <path class="cls-2" d="m126.27.07h24.24c17.46,0,29.42,10.52,29.42,26.68s-11.97,26.68-29.42,26.68h-24.24V.07Zm23.63,43.22c10.59,0,17.53-6.33,17.53-16.54s-6.94-16.54-17.53-16.54h-11.28v33.08h11.28Z"/>
        <path class="cls-2" d="m189.21.07h12.35v53.36h-12.35V.07Z"/>
        <path class="cls-2" d="m249.35,41.99h-24.77l-4.72,11.43h-12.65L230.98.07h12.2l23.86,53.36h-12.96l-4.73-11.43Zm-3.89-9.37l-8.46-20.43-8.46,20.43h16.92Z"/>
        <polygon class="cls-2" points="62.34 .07 52.2 .07 32.54 33.23 13.9 0 13.9 21.49 13.94 22.1 29.56 47.78 35.13 47.78 50.83 21.41 50.91 53.42 62.49 53.42 62.34 .07"/>
      </g>
      <g>
        <path class="cls-1" d="m0,91.34c0-17.02,9.43-26.68,22.11-26.68s22.11,9.65,22.11,26.68-9.36,26.68-22.11,26.68S0,108.36,0,91.34Zm32.2,0c0-11.72-4.13-16.58-10.1-16.58s-10.02,4.86-10.02,16.58,4.13,16.58,10.02,16.58,10.1-4.86,10.1-16.58Z"/>
        <path class="cls-1" d="m69.87,64.66v53.36h-12.35v-43.45h-10.67v-9.91h23.02Z"/>
        <path class="cls-2" d="m72.59,83.44v-18.78s26.53,32.39,26.53,32.39v-32.39h12.2v53.36h-10.14l-26.6-32.39-1.98-2.18Z"/>
        <path class="cls-2" d="m165.27,108.11v9.91h-41.31v-53.36h40.32v9.91h-28.05v11.59h24.77v9.6h-24.77v12.35h29.04Z"/>
      </g>
    </g>
  </g>
</svg>