<?xml version="1.0" encoding="UTF-8"?>
<svg id="Layer_2" data-name="Layer 2" xmlns="http://www.w3.org/2000/svg" viewBox="0 0 115.69 51.13">
  <defs>
    <style>
      .cls-1 {
        fill: #49bad5;
      }

      .cls-1, .cls-2 {
        stroke-width: 0px;
      }

      .cls-2 {
        fill: #fff;
      }
    </style>
  </defs>
  <g id="_ÎÓÈ_1" data-name="—ÎÓÈ_1">
    <g>
      <g>
        <polygon class="cls-2" points="5.02 9.57 5.02 23.15 0 23.15 0 .03 5 .04 5.02 9.57"/>
        <path class="cls-2" d="m50.45,18.85v4.29h-17.9V.03h17.47v4.29h-12.15v5.02h10.73v4.16h-10.73v5.35h12.58Z"/>
        <path class="cls-2" d="m54.71.03h10.5c7.56,0,12.75,4.56,12.75,11.56s-5.18,11.56-12.75,11.56h-10.5V.03Zm10.24,18.72c4.59,0,7.59-2.74,7.59-7.17s-3-7.17-7.59-7.17h-4.89v14.33h4.89Z"/>
        <path class="cls-2" d="m81.98.03h5.35v23.12h-5.35V.03Z"/>
        <path class="cls-2" d="m108.03,18.19h-10.73l-2.05,4.95h-5.48L100.07.03h5.28l10.34,23.12h-5.61l-2.05-4.95Zm-1.68-4.06l-3.67-8.85-3.67,8.85h7.33Z"/>
        <polygon class="cls-2" points="27.01 .03 22.62 .03 14.1 14.4 6.02 0 6.02 9.31 6.04 9.57 12.81 20.7 15.22 20.7 22.02 9.28 22.06 23.15 27.07 23.15 27.01 .03"/>
      </g>
      <g>
        <path class="cls-1" d="m0,39.57c0-7.38,4.09-11.56,9.58-11.56s9.58,4.18,9.58,11.56-4.05,11.56-9.58,11.56S0,46.95,0,39.57Zm13.95,0c0-5.08-1.79-7.18-4.37-7.18s-4.34,2.11-4.34,7.18,1.79,7.18,4.34,7.18,4.37-2.11,4.37-7.18Z"/>
        <path class="cls-1" d="m30.27,28.02v23.12h-5.35v-18.82h-4.62v-4.29h9.97Z"/>
        <path class="cls-2" d="m31.45,36.15v-8.14s11.49,14.03,11.49,14.03v-14.03h5.28v23.12h-4.39l-11.53-14.04-.86-.94Z"/>
        <path class="cls-2" d="m71.61,46.84v4.29h-17.9v-23.12h17.47v4.29h-12.15v5.02h10.73v4.16h-10.73v5.35h12.58Z"/>
      </g>
    </g>
  </g>
</svg>